<mxfile host="app.diagrams.net" agent="Mozilla/5.0 (Windows NT 10.0; Win64; x64) AppleWebKit/537.36 (KHTML, like Gecko) Chrome/131.0.0.0 Safari/537.36" version="24.8.4">
  <diagram id="C5RBs43oDa-KdzZeNtuy" name="Page-1">
    <mxGraphModel dx="1434" dy="772" grid="1" gridSize="10" guides="1" tooltips="1" connect="1" arrows="1" fold="1" page="1" pageScale="1" pageWidth="827" pageHeight="1169" math="0" shadow="0">
      <root>
        <mxCell id="WIyWlLk6GJQsqaUBKTNV-0" />
        <mxCell id="WIyWlLk6GJQsqaUBKTNV-1" parent="WIyWlLk6GJQsqaUBKTNV-0" />
        <mxCell id="-1uqBwOfG1-kAt7huN-u-4" style="edgeStyle=orthogonalEdgeStyle;rounded=0;orthogonalLoop=1;jettySize=auto;html=1;exitX=0.5;exitY=1;exitDx=0;exitDy=0;" edge="1" parent="WIyWlLk6GJQsqaUBKTNV-1" source="WIyWlLk6GJQsqaUBKTNV-3" target="-1uqBwOfG1-kAt7huN-u-3">
          <mxGeometry relative="1" as="geometry" />
        </mxCell>
        <mxCell id="WIyWlLk6GJQsqaUBKTNV-3" value="Invite" style="rounded=1;whiteSpace=wrap;html=1;fontSize=12;glass=0;strokeWidth=1;shadow=0;" parent="WIyWlLk6GJQsqaUBKTNV-1" vertex="1">
          <mxGeometry x="320" y="140" width="120" height="40" as="geometry" />
        </mxCell>
        <mxCell id="-1uqBwOfG1-kAt7huN-u-2" style="edgeStyle=orthogonalEdgeStyle;rounded=0;orthogonalLoop=1;jettySize=auto;html=1;entryX=0.5;entryY=0;entryDx=0;entryDy=0;" edge="1" parent="WIyWlLk6GJQsqaUBKTNV-1" source="-1uqBwOfG1-kAt7huN-u-1" target="WIyWlLk6GJQsqaUBKTNV-3">
          <mxGeometry relative="1" as="geometry" />
        </mxCell>
        <mxCell id="-1uqBwOfG1-kAt7huN-u-1" value="Start" style="ellipse;whiteSpace=wrap;html=1;aspect=fixed;" vertex="1" parent="WIyWlLk6GJQsqaUBKTNV-1">
          <mxGeometry x="340" y="30" width="80" height="80" as="geometry" />
        </mxCell>
        <mxCell id="-1uqBwOfG1-kAt7huN-u-6" style="edgeStyle=orthogonalEdgeStyle;rounded=0;orthogonalLoop=1;jettySize=auto;html=1;exitX=0.5;exitY=1;exitDx=0;exitDy=0;" edge="1" parent="WIyWlLk6GJQsqaUBKTNV-1" source="-1uqBwOfG1-kAt7huN-u-3" target="-1uqBwOfG1-kAt7huN-u-5">
          <mxGeometry relative="1" as="geometry" />
        </mxCell>
        <mxCell id="-1uqBwOfG1-kAt7huN-u-3" value="Enter Name &amp;amp; Email" style="rounded=1;whiteSpace=wrap;html=1;fontSize=12;glass=0;strokeWidth=1;shadow=0;" vertex="1" parent="WIyWlLk6GJQsqaUBKTNV-1">
          <mxGeometry x="320" y="200" width="120" height="40" as="geometry" />
        </mxCell>
        <mxCell id="-1uqBwOfG1-kAt7huN-u-12" style="edgeStyle=orthogonalEdgeStyle;rounded=0;orthogonalLoop=1;jettySize=auto;html=1;exitX=0.5;exitY=1;exitDx=0;exitDy=0;" edge="1" parent="WIyWlLk6GJQsqaUBKTNV-1" source="-1uqBwOfG1-kAt7huN-u-5" target="-1uqBwOfG1-kAt7huN-u-10">
          <mxGeometry relative="1" as="geometry" />
        </mxCell>
        <mxCell id="-1uqBwOfG1-kAt7huN-u-26" value="" style="edgeStyle=orthogonalEdgeStyle;rounded=0;orthogonalLoop=1;jettySize=auto;html=1;entryX=-0.006;entryY=0.367;entryDx=0;entryDy=0;entryPerimeter=0;" edge="1" parent="WIyWlLk6GJQsqaUBKTNV-1" source="-1uqBwOfG1-kAt7huN-u-5" target="-1uqBwOfG1-kAt7huN-u-27">
          <mxGeometry relative="1" as="geometry">
            <mxPoint x="520" y="290" as="targetPoint" />
          </mxGeometry>
        </mxCell>
        <mxCell id="-1uqBwOfG1-kAt7huN-u-5" value="Send Invitation" style="rounded=1;whiteSpace=wrap;html=1;fontSize=12;glass=0;strokeWidth=1;shadow=0;" vertex="1" parent="WIyWlLk6GJQsqaUBKTNV-1">
          <mxGeometry x="320" y="270" width="120" height="40" as="geometry" />
        </mxCell>
        <mxCell id="-1uqBwOfG1-kAt7huN-u-15" style="edgeStyle=orthogonalEdgeStyle;rounded=0;orthogonalLoop=1;jettySize=auto;html=1;exitX=1;exitY=0.5;exitDx=0;exitDy=0;entryX=0;entryY=0.5;entryDx=0;entryDy=0;" edge="1" parent="WIyWlLk6GJQsqaUBKTNV-1" source="-1uqBwOfG1-kAt7huN-u-10" target="-1uqBwOfG1-kAt7huN-u-14">
          <mxGeometry relative="1" as="geometry" />
        </mxCell>
        <mxCell id="-1uqBwOfG1-kAt7huN-u-17" style="edgeStyle=orthogonalEdgeStyle;rounded=0;orthogonalLoop=1;jettySize=auto;html=1;exitX=0;exitY=0.5;exitDx=0;exitDy=0;" edge="1" parent="WIyWlLk6GJQsqaUBKTNV-1" source="-1uqBwOfG1-kAt7huN-u-10" target="-1uqBwOfG1-kAt7huN-u-16">
          <mxGeometry relative="1" as="geometry" />
        </mxCell>
        <mxCell id="-1uqBwOfG1-kAt7huN-u-10" value="Invitation" style="rhombus;whiteSpace=wrap;html=1;" vertex="1" parent="WIyWlLk6GJQsqaUBKTNV-1">
          <mxGeometry x="340" y="340" width="80" height="80" as="geometry" />
        </mxCell>
        <mxCell id="-1uqBwOfG1-kAt7huN-u-21" style="edgeStyle=orthogonalEdgeStyle;rounded=0;orthogonalLoop=1;jettySize=auto;html=1;exitX=0.5;exitY=1;exitDx=0;exitDy=0;entryX=0.5;entryY=0;entryDx=0;entryDy=0;" edge="1" parent="WIyWlLk6GJQsqaUBKTNV-1" source="-1uqBwOfG1-kAt7huN-u-14" target="-1uqBwOfG1-kAt7huN-u-20">
          <mxGeometry relative="1" as="geometry" />
        </mxCell>
        <mxCell id="-1uqBwOfG1-kAt7huN-u-29" style="edgeStyle=orthogonalEdgeStyle;rounded=0;orthogonalLoop=1;jettySize=auto;html=1;" edge="1" parent="WIyWlLk6GJQsqaUBKTNV-1" source="-1uqBwOfG1-kAt7huN-u-14" target="-1uqBwOfG1-kAt7huN-u-28">
          <mxGeometry relative="1" as="geometry" />
        </mxCell>
        <mxCell id="-1uqBwOfG1-kAt7huN-u-14" value="New SignUp Page&lt;div&gt;(Name &amp;amp; Email field will be filled and disabled)&lt;/div&gt;" style="rounded=1;whiteSpace=wrap;html=1;fontSize=12;glass=0;strokeWidth=1;shadow=0;" vertex="1" parent="WIyWlLk6GJQsqaUBKTNV-1">
          <mxGeometry x="480" y="345" width="120" height="70" as="geometry" />
        </mxCell>
        <mxCell id="-1uqBwOfG1-kAt7huN-u-33" style="edgeStyle=orthogonalEdgeStyle;rounded=0;orthogonalLoop=1;jettySize=auto;html=1;exitX=0.5;exitY=1;exitDx=0;exitDy=0;" edge="1" parent="WIyWlLk6GJQsqaUBKTNV-1" source="-1uqBwOfG1-kAt7huN-u-16" target="-1uqBwOfG1-kAt7huN-u-32">
          <mxGeometry relative="1" as="geometry" />
        </mxCell>
        <mxCell id="-1uqBwOfG1-kAt7huN-u-16" value="Send Invitation" style="rounded=1;whiteSpace=wrap;html=1;fontSize=12;glass=0;strokeWidth=1;shadow=0;" vertex="1" parent="WIyWlLk6GJQsqaUBKTNV-1">
          <mxGeometry x="150" y="360" width="120" height="40" as="geometry" />
        </mxCell>
        <mxCell id="-1uqBwOfG1-kAt7huN-u-18" value="Yes" style="text;html=1;align=center;verticalAlign=middle;resizable=0;points=[];autosize=1;strokeColor=none;fillColor=none;" vertex="1" parent="WIyWlLk6GJQsqaUBKTNV-1">
          <mxGeometry x="430" y="350" width="40" height="30" as="geometry" />
        </mxCell>
        <mxCell id="-1uqBwOfG1-kAt7huN-u-19" value="No" style="text;html=1;align=center;verticalAlign=middle;resizable=0;points=[];autosize=1;strokeColor=none;fillColor=none;" vertex="1" parent="WIyWlLk6GJQsqaUBKTNV-1">
          <mxGeometry x="290" y="350" width="40" height="30" as="geometry" />
        </mxCell>
        <mxCell id="-1uqBwOfG1-kAt7huN-u-34" style="edgeStyle=orthogonalEdgeStyle;rounded=0;orthogonalLoop=1;jettySize=auto;html=1;" edge="1" parent="WIyWlLk6GJQsqaUBKTNV-1" source="-1uqBwOfG1-kAt7huN-u-20" target="-1uqBwOfG1-kAt7huN-u-32">
          <mxGeometry relative="1" as="geometry" />
        </mxCell>
        <mxCell id="-1uqBwOfG1-kAt7huN-u-20" value="User created and status will be changed from invited to active in the user list." style="rounded=1;whiteSpace=wrap;html=1;fontSize=12;glass=0;strokeWidth=1;shadow=0;" vertex="1" parent="WIyWlLk6GJQsqaUBKTNV-1">
          <mxGeometry x="480" y="450" width="130" height="100" as="geometry" />
        </mxCell>
        <mxCell id="-1uqBwOfG1-kAt7huN-u-27" value="&lt;h1 style=&quot;margin-top: 0px;&quot;&gt;&lt;span style=&quot;text-align: center; background-color: initial;&quot;&gt;Invitation&lt;/span&gt;&lt;/h1&gt;&lt;h1 style=&quot;margin-top: 0px;&quot;&gt;&lt;span style=&quot;text-align: center; background-color: initial; font-size: 12px; font-weight: normal;&quot;&gt;Invitation deadline will be 7 days&lt;/span&gt;&lt;/h1&gt;" style="text;html=1;whiteSpace=wrap;overflow=hidden;rounded=0;fillColor=#fff2cc;strokeColor=#d6b656;" vertex="1" parent="WIyWlLk6GJQsqaUBKTNV-1">
          <mxGeometry x="510" y="190" width="180" height="90" as="geometry" />
        </mxCell>
        <mxCell id="-1uqBwOfG1-kAt7huN-u-28" value="&lt;h1 style=&quot;margin-top: 0px;&quot;&gt;&lt;span style=&quot;text-align: center; background-color: initial;&quot;&gt;Sooner&lt;/span&gt;&lt;/h1&gt;&lt;h1 style=&quot;margin-top: 0px;&quot;&gt;&lt;span style=&quot;text-align: center; background-color: initial; font-size: 12px; font-weight: normal;&quot;&gt;If user again try to sign up by clicking on this link system will show user already registered.&lt;/span&gt;&lt;/h1&gt;" style="text;html=1;whiteSpace=wrap;overflow=hidden;rounded=0;fillColor=#fff2cc;strokeColor=#d6b656;" vertex="1" parent="WIyWlLk6GJQsqaUBKTNV-1">
          <mxGeometry x="640" y="305" width="180" height="150" as="geometry" />
        </mxCell>
        <mxCell id="-1uqBwOfG1-kAt7huN-u-32" value="Stop" style="ellipse;whiteSpace=wrap;html=1;" vertex="1" parent="WIyWlLk6GJQsqaUBKTNV-1">
          <mxGeometry x="150" y="460" width="120" height="80" as="geometry" />
        </mxCell>
      </root>
    </mxGraphModel>
  </diagram>
</mxfile>
